<svg width="21" height="22" viewBox="0 0 21 22" fill="none" xmlns="http://www.w3.org/2000/svg">
<path fill-rule="evenodd" clip-rule="evenodd" d="M14.5137 20.5H6.16592C3.09955 20.5 0.747152 19.3925 1.41534 14.9348L2.19338 8.89363C2.60528 6.66937 4.02404 5.81812 5.26889 5.81812H15.4474C16.7105 5.81812 18.0469 6.73345 18.5229 8.89363L19.3009 14.9348C19.8684 18.8891 17.5801 20.5 14.5137 20.5Z" stroke="#09270D" stroke-width="1.5" stroke-linecap="round" stroke-linejoin="round"/>
<path d="M14.651 5.59848C14.651 3.21241 12.7167 1.27812 10.3307 1.27812V1.27812C9.18168 1.27325 8.07807 1.72628 7.26388 2.53703C6.44969 3.34778 5.99199 4.44947 5.992 5.59848H5.992" stroke="#09270D" stroke-width="1.5" stroke-linecap="round" stroke-linejoin="round"/>
<path d="M13.2963 10.102H13.2506" stroke="#09270D" stroke-width="1.5" stroke-linecap="round" stroke-linejoin="round"/>
<path d="M7.46572 10.102H7.41995" stroke="#09270D" stroke-width="1.5" stroke-linecap="round" stroke-linejoin="round"/>
</svg>
