<svg width="20" height="20" viewBox="0 0 20 20" fill="none" xmlns="http://www.w3.org/2000/svg">
<path fill-rule="evenodd" clip-rule="evenodd" d="M7.87657 13.2063C4.03257 13.2063 0.749573 13.7873 0.749573 16.1153C0.749573 18.4433 4.01257 19.0453 7.87657 19.0453C11.7216 19.0453 15.0036 18.4633 15.0036 16.1363C15.0036 13.8093 11.7416 13.2063 7.87657 13.2063Z" stroke="#09270D" stroke-width="1.5" stroke-linecap="round" stroke-linejoin="round"/>
<path fill-rule="evenodd" clip-rule="evenodd" d="M7.8766 9.886C10.3996 9.886 12.4446 7.841 12.4446 5.318C12.4446 2.795 10.3996 0.75 7.8766 0.75C5.3546 0.75 3.3096 2.795 3.3096 5.318C3.3006 7.832 5.3306 9.877 7.8456 9.886H7.8766Z" stroke="#09270D" stroke-width="1.5" stroke-linecap="round" stroke-linejoin="round"/>
<path d="M17.2037 6.66919V10.6792" stroke="#09270D" stroke-width="1.5" stroke-linecap="round" stroke-linejoin="round"/>
<path d="M19.2495 8.67407H15.1595" stroke="#09270D" stroke-width="1.5" stroke-linecap="round" stroke-linejoin="round"/>
</svg>
