<svg width="10" height="12" viewBox="0 0 10 12" fill="none" xmlns="http://www.w3.org/2000/svg">
<path d="M9.63078 4.869C9.57428 4.811 9.36094 4.563 9.1622 4.359C7.99708 3.076 4.95762 0.976 3.36678 0.335C3.12518 0.232 2.51437 0.014 2.18802 0C1.8753 0 1.5772 0.072 1.29274 0.218C0.93814 0.422 0.653678 0.743 0.497808 1.122C0.397468 1.385 0.241598 2.172 0.241598 2.186C0.0857286 3.047 0 4.446 0 5.992C0 7.465 0.0857286 8.807 0.213346 9.681C0.22796 9.695 0.383828 10.673 0.554311 11.008C0.867023 11.62 1.47784 12 2.13152 12H2.18802C2.61374 11.985 3.50901 11.605 3.50901 11.591C5.01413 10.949 7.98344 8.952 9.17681 7.625C9.17681 7.625 9.51291 7.284 9.65904 7.071C9.88699 6.765 10 6.386 10 6.007C10 5.584 9.87238 5.19 9.63078 4.869Z" fill="#3E8847"/>
</svg>
